<svg width="1280" height="5069" viewBox="0 0 1280 5069" fill="none" xmlns="http://www.w3.org/2000/svg">
<mask id="mask0" style="mask-type:alpha" maskUnits="userSpaceOnUse" x="0" y="0" width="1280" height="5069">
<rect width="1280" height="5069" fill="white"/>
</mask>
<g mask="url(#mask0)">
<path d="M610.031 -0.925808C663.532 58.9621 508.662 163.283 418.555 138.169C314.37 114.986 213 75.8939 213 -0.925808C213 -77.7455 297.475 -155.475 418.555 -140.02C539.636 -124.565 525.557 -126.497 610.031 -0.925808Z" fill="#DD346D" fill-opacity="0.1"/>
<path d="M694.793 292.254C851.885 437.545 397.144 690.634 132.566 629.705C-173.351 573.463 -471 478.623 -471 292.254C-471 105.885 -222.959 -82.6915 132.566 -45.197C488.092 -7.70242 446.752 -12.3892 694.793 292.254Z" fill="#DD346D" fill-opacity="0.1"/>
<path d="M1187.79 2971.25C1344.89 3116.55 890.144 3369.63 625.566 3308.7C319.649 3252.46 22 3157.62 22 2971.25C22 2784.88 270.041 2596.31 625.566 2633.8C981.092 2671.3 939.752 2666.61 1187.79 2971.25Z" fill="#DD346D" fill-opacity="0.1"/>
<path d="M253.933 3320.59C301.776 3355.6 400.02 3280.1 384.022 3228.18C370.517 3168.7 343.279 3109.28 277.786 3102.13C212.293 3094.98 140.949 3134.23 146.851 3202.29C152.752 3270.35 151.951 3262.42 253.933 3320.59Z" fill="#DD346D" fill-opacity="0.1"/>
<path d="M653.194 2183.47C689.541 2464.09 493.375 2405.47 282.694 2183.47C262.725 2115.66 27.2357 2088.15 94.1391 1983.08C161.042 1878.02 466.777 1697.88 618.955 1840.7C638.746 1936.05 624.826 1964.45 653.194 2183.47Z" fill="#C4C4C4" fill-opacity="0.2"/>
<path d="M994.381 2094.15C819.725 1991.37 893.985 1859.01 1029.87 1847.75C1071.49 1860.12 1050.92 1832.03 1115.65 1886.08C1180.37 1940.14 1291.82 2100.9 1204.45 2114.08C1145.9 2093.71 1115.96 2176.67 994.381 2094.15Z" fill="#C4C4C4" fill-opacity="0.2"/>
<path d="M1124.3 527.882C949.645 425.094 1023.9 292.736 1159.79 281.475C1201.41 293.853 1180.84 265.758 1245.57 319.811C1310.29 373.864 1421.74 534.627 1334.37 547.805C1275.82 527.442 1245.88 610.395 1124.3 527.882Z" fill="#C4C4C4" fill-opacity="0.2"/>
<path d="M1114.26 835.569C1478.33 973.147 1104.31 1072.39 1066.43 1272.45C1060.28 1432.93 873.004 1509.28 744.753 1419.48C616.502 1329.69 423.935 1010.49 633.049 922.251C760.971 934.105 865.408 713.146 1114.26 835.569Z" fill="#C4C4C4" fill-opacity="0.1"/>
<path d="M962.789 4013.56C1490.86 4213.11 948.37 4357.06 893.415 4647.22C884.493 4879.98 612.869 4990.73 426.85 4860.49C240.831 4730.25 -38.4741 4267.28 264.832 4139.28C450.374 4156.48 601.852 3835.99 962.789 4013.56Z" fill="#C4C4C4" fill-opacity="0.1"/>
<path d="M347.289 1382.45C429.214 1412.82 408.768 1456.19 381.53 1508.72C368.053 1534.7 290.263 1536.29 261.552 1516.19C232.84 1496.08 190.391 1423.97 238.046 1403.37C266.961 1405.74 291.395 1355.23 347.289 1382.45Z" fill="#C4C4C4" fill-opacity="0.1"/>
<path d="M403.496 1459.02C455.985 1441.91 462.652 1519.3 427.787 1519.32C413.162 1519.33 379.11 1538.19 370.133 1517.67C382.508 1493.59 357.853 1480.93 357.864 1465.91C357.883 1441.96 390.951 1450.87 403.496 1459.02Z" fill="#D8D8D8" fill-opacity="0.1"/>
<path d="M1861.79 128.254C2018.89 273.545 1564.14 526.634 1299.57 465.705C993.649 409.463 696 314.623 696 128.254C696 -58.115 944.041 -246.691 1299.57 -209.197C1655.09 -171.702 1613.75 -176.389 1861.79 128.254Z" fill="#DD346D" fill-opacity="0.1"/>
<path d="M846.301 3661.48C671.645 3558.69 745.905 3426.33 881.791 3415.07C923.406 3427.45 902.844 3399.35 967.568 3453.41C1032.29 3507.46 1143.74 3668.22 1056.37 3681.4C997.823 3661.04 967.875 3743.99 846.301 3661.48Z" fill="#C4C4C4" fill-opacity="0.2"/>
<path d="M1199.48 3243.72C1268.31 3052.12 1410.95 3101.81 1446.48 3234.41C1441.9 3277.88 1465.62 3252.43 1424.53 3326.32C1383.44 3400.2 1246.58 3539.64 1217.94 3455.45C1227.26 3393.77 1140.86 3379.07 1199.48 3243.72Z" fill="#C4C4C4" fill-opacity="0.2"/>
</g>
</svg>
