<svg width="1280" height="1678" viewBox="0 0 1280 1678" fill="none" xmlns="http://www.w3.org/2000/svg">
<mask id="mask0" style="mask-type:alpha" maskUnits="userSpaceOnUse" x="0" y="0" width="1280" height="1678">
<rect width="1280" height="1678" fill="white"/>
</mask>
<g mask="url(#mask0)">
<path d="M364.604 434.434C140.796 520.904 -252.597 279.991 -159.706 136.921C-74.2589 -28.3068 70.8878 -189.628 358.95 -192.227C647.012 -194.826 939.689 -64.1238 883.46 127.509C827.231 319.141 834.274 296.853 364.604 434.434Z" fill="#DD346D" fill-opacity="0.1"/>
<path d="M407.194 1436.47C443.541 1717.09 247.375 1658.47 36.6941 1436.47C16.7251 1368.66 -218.764 1341.15 -151.861 1236.08C-84.9575 1131.02 220.777 950.881 372.955 1093.7C392.746 1189.05 378.826 1217.45 407.194 1436.47Z" fill="#C4C4C4" fill-opacity="0.2"/>
<path d="M988.301 1120.88C813.645 1018.09 887.905 885.736 1023.79 874.475C1065.41 886.853 1044.84 858.758 1109.57 912.811C1174.29 966.864 1285.74 1127.63 1198.37 1140.8C1139.82 1120.44 1109.88 1203.39 988.301 1120.88Z" fill="#C4C4C4" fill-opacity="0.2"/>
<path d="M1330.33 533.608C1639.01 663.516 1341.63 720.642 1327.08 876.942C1335.22 1003.71 1188.5 1053.43 1076.38 974.931C964.258 896.429 780.79 632.506 944.37 574.62C1049.83 591.361 1117.03 422.327 1330.33 533.608Z" fill="#C4C4C4" fill-opacity="0.1"/>
<path d="M260.289 626.065C342.214 656.444 321.768 699.812 294.53 752.337C281.053 778.323 203.263 779.908 174.552 759.806C145.84 739.704 103.391 667.586 151.046 646.989C179.961 649.364 204.395 598.844 260.289 626.065Z" fill="#C4C4C4" fill-opacity="0.1"/>
<path d="M316.496 702.637C368.985 685.53 375.652 762.922 340.787 762.941C326.162 762.949 292.11 781.808 283.133 761.289C295.508 737.209 270.853 724.548 270.864 709.525C270.883 685.584 303.951 694.485 316.496 702.637Z" fill="#D8D8D8" fill-opacity="0.1"/>
</g>
</svg>
