<svg width="1280" height="5069" viewBox="0 0 1280 5069" fill="none" xmlns="http://www.w3.org/2000/svg">
<mask id="mask0" style="mask-type:alpha" maskUnits="userSpaceOnUse" x="0" y="0" width="1280" height="5069">
<rect width="1280" height="5069" fill="white"/>
</mask>
<g mask="url(#mask0)">
<path d="M1501.37 1759.24C1689.8 1970.32 1144.34 2338.01 826.977 2249.5C460.03 2167.79 103 2030 103 1759.24C103 1488.47 400.525 1214.5 826.977 1268.98C1253.43 1323.45 1203.84 1316.64 1501.37 1759.24Z" fill="#DD346D" fill-opacity="0.1"/>
<path d="M567.582 4937.97C779.356 5133.82 166.327 5474.98 -190.344 5392.85C-602.745 5317.04 -1004 5189.19 -1004 4937.97C-1004 4686.75 -669.621 4432.55 -190.344 4483.09C288.933 4533.63 233.203 4527.31 567.582 4937.97Z" fill="#DD346D" fill-opacity="0.1"/>
<path d="M468.194 1061.1C504.541 1341.72 308.375 1283.11 97.694 1061.1C77.725 993.296 -157.764 965.782 -90.8611 860.719C-23.9576 755.655 281.776 575.516 433.955 718.332C453.746 813.69 439.826 842.083 468.194 1061.1Z" fill="#C4C4C4" fill-opacity="0.2"/>
<path d="M966.075 866.154C791.419 763.365 865.679 631.008 1001.57 619.747C1043.18 632.125 1022.62 604.03 1087.34 658.083C1152.07 712.136 1263.51 872.899 1176.14 886.077C1117.6 865.714 1087.65 948.667 966.075 866.154Z" fill="#C4C4C4" fill-opacity="0.2"/>
<path d="M1322.48 -132.747C1850.55 66.8009 1308.06 210.752 1253.11 500.92C1244.19 733.68 972.563 844.422 786.544 714.182C600.525 583.942 321.22 120.972 624.526 -7.01968C810.068 10.1729 961.546 -310.312 1322.48 -132.747Z" fill="#C4C4C4" fill-opacity="0.1"/>
<path d="M773.672 4079.42C230.485 3925.73 758.686 3735.95 788.644 3442.15C777.643 3209.48 1038.81 3075.93 1235.28 3189.8C1431.75 3303.66 1749.59 3741.07 1458.33 3894.51C1272 3893.24 1148.46 4225.5 773.672 4079.42Z" fill="#C4C4C4" fill-opacity="0.1"/>
<path d="M318.983 154.446C400.908 184.824 380.462 228.193 353.224 280.717C339.747 306.704 261.957 308.288 233.245 288.186C204.534 268.084 162.085 195.966 209.74 175.37C238.655 177.745 263.089 127.225 318.983 154.446Z" fill="#C4C4C4" fill-opacity="0.1"/>
<path d="M375.191 231.018C427.679 213.911 434.346 291.303 399.481 291.321C384.856 291.329 350.804 310.188 341.827 289.669C354.202 265.589 329.547 252.928 329.558 237.906C329.577 213.965 362.645 222.866 375.191 231.018Z" fill="#D8D8D8" fill-opacity="0.1"/>
<path d="M2141.58 4716.36C2353.36 4912.21 1740.33 5253.37 1383.66 5171.24C971.255 5095.42 570 4967.58 570 4716.36C570 4465.13 904.379 4210.93 1383.66 4261.47C1862.93 4312.02 1807.2 4305.7 2141.58 4716.36Z" fill="#DD346D" fill-opacity="0.1"/>
<path d="M117.301 3899.88C-57.3549 3797.09 16.9049 3664.74 152.791 3653.47C194.406 3665.85 173.844 3637.76 238.568 3691.81C303.291 3745.86 414.74 3906.63 327.367 3919.8C268.823 3899.44 238.875 3982.39 117.301 3899.88Z" fill="#C4C4C4" fill-opacity="0.2"/>
<path d="M-44.1917 3747.2C-13.2625 3657.86 56.7274 3684.23 75.7464 3747.71C74.0969 3768.2 85.291 3756.62 66.2917 3790.78C47.2924 3824.94 -17.3865 3888.23 -32.4192 3847.8C-28.7061 3818.79 -70.8981 3810.11 -44.1917 3747.2Z" fill="#C4C4C4" fill-opacity="0.2"/>
<path d="M1143.5 3345.89C1212.34 3154.29 1354.98 3203.97 1390.5 3336.57C1385.93 3380.04 1409.65 3354.59 1368.55 3428.48C1327.46 3502.36 1190.61 3641.8 1161.97 3557.62C1171.28 3495.93 1084.88 3481.24 1143.5 3345.89Z" fill="#C4C4C4" fill-opacity="0.2"/>
<path d="M863.262 2696.05C1356.66 2970.33 799.001 3033.79 702.398 3312.87C659.694 3541.85 374.844 3611.88 209.762 3455.95C44.6795 3300.02 -164.267 2801.33 154.438 2718.85C335.502 2762.86 532.013 2467.84 863.262 2696.05Z" fill="#C4C4C4" fill-opacity="0.1"/>
</g>
</svg>
