<svg xmlns="http://www.w3.org/2000/svg" xmlns:xlink="http://www.w3.org/1999/xlink" viewBox="0 0 145.9 152.49"><defs><style>.cls-1{fill:url(#Degradado_sin_nombre_208);}.cls-2{fill:#fff;}</style><linearGradient id="Degradado_sin_nombre_208" y1="76.25" x2="145.9" y2="76.25" gradientUnits="userSpaceOnUse"><stop offset="0" stop-color="#e51c73"/><stop offset="1" stop-color="#652480"/></linearGradient></defs><g id="Capa_2" data-name="Capa 2"><g id="Capa_1-2" data-name="Capa 1"><rect class="cls-1" width="145.9" height="152.49"/><rect class="cls-2" x="12.82" y="122.56" width="120.68" height="20.93"/><path d="M33.25,138.73h-3V130l-3.52,8.67H24L20.73,130v8.69H17.78V127.91H23l2.5,6.93,2.7-6.93h5Z"/><path d="M47.9,133.75c0,3.75-2.66,5.32-6.19,5.32s-5.94-1.61-5.94-5.29v-5.87h3v5.39c0,2.5,1.18,3.12,2.93,3.12s3.26-.52,3.26-3.1v-5.41h2.9Z"/><path d="M63.15,138.71h-3l-6.66-7v7H50.39v-10.8H53.5l6.58,6.74v-6.74h3.07Z"/><path d="M71.85,127.91c3.91,0,7.09,1.09,7.09,5.39,0,2.42-1.68,5.41-6.72,5.41H65.74v-10.8Zm-3.19,2.43v5.59h3.17c2.68,0,4.07-.91,4.07-2.74s-1.22-2.85-4.05-2.85Z"/><path d="M87.85,139.07c-3.79,0-6.95-2.1-6.95-5.77s3.16-5.74,6.95-5.74,7,2.09,7,5.74S91.64,139.07,87.85,139.07Zm0-8.94c-2.58,0-3.89,1.25-3.89,3.17s1.31,3.17,3.89,3.17,3.91-1.23,3.91-3.17S90.44,130.13,87.85,130.13Z"/><path d="M112,130.34h-7.7v2h6.87v2.58h-6.87v3.79h-2.93v-10.8H112Z"/><path d="M116.46,138.71h-2.92v-10.8h2.92Z"/><path d="M129.58,130.61h-4.24v8.1h-2.92v-8.1H118.2v-2.7h11.38Z"/><path class="cls-2" d="M26.56,10.37H43.44l6.14,18,15.79-18H84.16L70.41,61.53h-17l6.8-25.36L43.52,54.37h-.3l-6.87-18.2L29.56,61.53H12.82Z"/><path class="cls-2" d="M90.56,10.37h18.13c9.94,0,16.15,2.7,20,6.58s5.56,8.77,5.56,15a28.07,28.07,0,0,1-8.41,20.17c-6.14,6.14-15,9.43-26.82,9.43H76.82Zm10.38,36.25c5.19,0,9.65-1.53,12.28-4.16a13.07,13.07,0,0,0,3.65-8.7,7.82,7.82,0,0,0-2.12-5.92c-1.61-1.61-4.16-2.56-8.26-2.56h-2.85l-5.7,21.34Z"/><path class="cls-2" d="M26.56,65.21H69.39l-4,14.62H39.72L38,86.33h23.9l-3.58,13.3H34.38l-4.46,16.74H12.82Z"/><path class="cls-2" d="M98.47,63.8a27,27,0,1,0,27,27A27,27,0,0,0,98.47,63.8Zm0,48.85a21.86,21.86,0,1,1,21.86-21.86A21.86,21.86,0,0,1,98.47,112.65Z"/><path class="cls-2" d="M90.82,73.69A18.51,18.51,0,0,0,86,76.77a18.36,18.36,0,0,0,2.19,1.67A20.61,20.61,0,0,1,90.82,73.69Z"/><path class="cls-2" d="M96.94,81.37v-9c-3.07.88-5.2,4.45-6.35,7.43A18.57,18.57,0,0,0,96.94,81.37Z"/><path class="cls-2" d="M87.27,81.08a21.37,21.37,0,0,1-3.19-2.36,18.48,18.48,0,0,0-4.39,10.71H86A34.65,34.65,0,0,1,87.27,81.08Z"/><path class="cls-2" d="M86,92.15H79.69a18.48,18.48,0,0,0,4.39,10.71,22.16,22.16,0,0,1,3.19-2.37A34.56,34.56,0,0,1,86,92.15Z"/><path class="cls-2" d="M110.62,89.43h6.29a18.53,18.53,0,0,0-4.38-10.71,21.45,21.45,0,0,1-3.2,2.36A34.24,34.24,0,0,1,110.62,89.43Z"/><path class="cls-2" d="M110.61,76.77a18.51,18.51,0,0,0-4.83-3.08,20.61,20.61,0,0,1,2.64,4.75A17.59,17.59,0,0,0,110.61,76.77Z"/><path class="cls-2" d="M99.66,72.33v9A18.51,18.51,0,0,0,106,79.76C104.86,76.78,102.73,73.21,99.66,72.33Z"/><path class="cls-2" d="M105.78,107.89a18.55,18.55,0,0,0,4.83-3.09,18.54,18.54,0,0,0-2.19-1.66A20.61,20.61,0,0,1,105.78,107.89Z"/><path class="cls-2" d="M99.66,100.21v9c3.07-.89,5.2-4.45,6.35-7.43A18.51,18.51,0,0,0,99.66,100.21Z"/><path class="cls-2" d="M109.33,100.49a22.24,22.24,0,0,1,3.2,2.37,18.53,18.53,0,0,0,4.38-10.71h-6.29A34.08,34.08,0,0,1,109.33,100.49Z"/><path class="cls-2" d="M105.39,87.66l-4.79,10a20.22,20.22,0,0,1,4.66,1c.54.19,1.08.4,1.6.63l0-.11a32.61,32.61,0,0,0,1-7h0a27,27,0,0,0-1-9.79c-.19.09-.38.16-.58.24A23.43,23.43,0,0,1,98.72,84l-1.11,5.69Z"/><path class="cls-2" d="M91.78,95.18l5-11.18a21.29,21.29,0,0,1-7.09-1.64,32.51,32.51,0,0,0,0,16.86l.11,0a25.14,25.14,0,0,1,8.59-1.61l1-4.46Z"/><path class="cls-2" d="M86,104.8a18.55,18.55,0,0,0,4.83,3.09,20.61,20.61,0,0,1-2.64-4.75A19.4,19.4,0,0,0,86,104.8Z"/><path class="cls-2" d="M96.94,109.25v-9a18.57,18.57,0,0,0-6.35,1.61C91.74,104.8,93.87,108.36,96.94,109.25Z"/></g></g></svg>