<svg xmlns="http://www.w3.org/2000/svg" viewBox="0 0 244.85 29.94"><defs><style>.cls-1{fill:#fff;}</style></defs><g id="Capa_2" data-name="Capa 2"><g id="Capa_1-2" data-name="Capa 1"><path class="cls-1" d="M7.73.58h9.5l3.46,10.11L29.57.58H40.14L32.41,29.37H22.83l3.82-14.28L17.28,25.34h-.17L13.24,15.09,9.42,29.37H0Z"/><path class="cls-1" d="M38.54,19.58a18.6,18.6,0,0,1,.62-4.65L43,.58h9.79l-4,15a9.94,9.94,0,0,0-.33,2.26c0,2.38,1.4,3.62,3.95,3.62a4.35,4.35,0,0,0,3.09-1.19,8.8,8.8,0,0,0,2-4.2L61.7.58h9.79L66.92,17.52a18.74,18.74,0,0,1-4.52,8.64c-2.72,2.71-6.83,3.78-11.4,3.78C42.9,29.94,38.54,26.08,38.54,19.58Z"/><path class="cls-1" d="M74.37.58h9l6.54,13.73L93.61.58h9.55L95.42,29.37H86.87L80,15.05,76.18,29.37H66.63Z"/><path class="cls-1" d="M106.28.58h10.2c5.6,0,9.09,1.52,11.27,3.7a11.32,11.32,0,0,1,3.13,8.43,15.8,15.8,0,0,1-4.73,11.35c-3.46,3.46-8.43,5.31-15.1,5.31H98.55ZM112.12,21A9.8,9.8,0,0,0,119,18.63a7.3,7.3,0,0,0,2.06-4.89,4.4,4.4,0,0,0-1.19-3.33C119,9.5,117.55,9,115.25,9h-1.6l-3.21,12Z"/><path class="cls-1" d="M132.24,16.9A17,17,0,0,1,149.18,0c8.48,0,14.32,5.68,14.32,13a17,17,0,0,1-16.95,16.9C138.08,29.94,132.24,24.27,132.24,16.9Zm21.59-3c0-3-1.85-5.43-5.31-5.43-4,0-6.62,3.95-6.62,7.57,0,3,1.85,5.43,5.31,5.43C151.24,21.47,153.83,17.52,153.83,13.9Z"/><path class="cls-1" d="M180.11.58h24.11L202,8.8H187.52l-1,3.66H200L198,20H184.51L182,29.37h-9.62Z"/><path class="cls-1" d="M206.56.58h9.62l-7.73,28.79h-9.62Z"/><path class="cls-1" d="M224.58,8.72H216.1L218.28.58h26.57l-2.18,8.14H234.2l-5.55,20.65H219Z"/></g></g></svg>