<svg width="724" height="2865" viewBox="0 0 724 2865" fill="none" xmlns="http://www.w3.org/2000/svg">
<mask id="mask0" style="mask-type:alpha" maskUnits="userSpaceOnUse" x="0" y="0" width="724" height="2865">
<rect width="723.456" height="2865" fill="white"/>
</mask>
<g mask="url(#mask0)">
<path d="M728.751 135.217C835.253 254.521 526.957 462.342 347.585 412.311C140.187 366.129 -61.6068 288.252 -61.6068 135.217C-61.6068 -17.8183 106.554 -172.666 347.585 -141.878C588.617 -111.089 560.59 -114.938 728.751 135.217Z" fill="#DD346D" fill-opacity="0.1"/>
<path d="M340.014 1718.29C459.709 1828.99 113.225 2021.81 -88.3657 1975.39C-321.455 1932.54 -548.244 1860.28 -548.244 1718.29C-548.244 1576.3 -359.253 1432.63 -88.3657 1461.19C182.522 1489.76 151.023 1486.19 340.014 1718.29Z" fill="#DD346D" fill-opacity="0.1"/>
<path d="M280.622 1293.8C301.165 1452.41 190.292 1419.28 71.2152 1293.8C59.9288 1255.48 -73.1699 1239.93 -35.3561 1180.54C2.45773 1121.16 175.259 1019.35 261.27 1100.07C272.456 1153.96 264.588 1170.01 280.622 1293.8Z" fill="#C4C4C4" fill-opacity="0.2"/>
<path d="M562.024 1183.62C463.309 1125.52 505.281 1050.71 582.083 1044.35C605.604 1051.34 593.983 1035.46 630.565 1066.01C667.146 1096.57 730.137 1187.43 680.754 1194.88C647.665 1183.37 630.738 1230.25 562.024 1183.62Z" fill="#C4C4C4" fill-opacity="0.2"/>
<path d="M763.466 619.037C1061.93 731.822 755.316 813.183 724.256 977.186C719.214 1108.74 565.691 1171.33 460.553 1097.72C355.415 1024.11 197.552 762.439 368.981 690.098C473.849 699.816 559.465 518.678 763.466 619.037Z" fill="#C4C4C4" fill-opacity="0.1"/>
<path d="M544.169 2268.46C842.632 2381.25 536.019 2462.61 504.958 2626.61C499.916 2758.17 346.394 2820.76 241.256 2747.15C136.118 2673.54 -21.7456 2411.87 149.683 2339.52C254.551 2349.24 340.167 2168.1 544.169 2268.46Z" fill="#C4C4C4" fill-opacity="0.1"/>
<path d="M196.288 781.359C242.592 798.529 231.036 823.04 215.641 852.727C208.024 867.415 164.057 868.311 147.829 856.949C131.601 845.587 107.609 804.826 134.543 793.185C150.887 794.527 164.696 765.974 196.288 781.359Z" fill="#C4C4C4" fill-opacity="0.1"/>
<path d="M228.056 824.637C257.723 814.968 261.491 858.71 241.785 858.721C233.519 858.725 214.273 869.384 209.199 857.787C216.194 844.177 202.258 837.021 202.265 828.53C202.276 814.999 220.965 820.03 228.056 824.637Z" fill="#D8D8D8" fill-opacity="0.1"/>
<path d="M1229.64 1593.03C1349.33 1703.73 1002.85 1896.55 801.259 1850.13C568.17 1807.28 341.381 1735.03 341.381 1593.03C341.381 1451.04 530.372 1307.37 801.259 1335.94C1072.15 1364.5 1040.65 1360.93 1229.64 1593.03Z" fill="#DD346D" fill-opacity="0.1"/>
<path d="M478.329 2069.47C379.614 2011.37 421.586 1936.56 498.388 1930.2C521.909 1937.2 510.288 1921.32 546.87 1951.87C583.451 1982.42 646.442 2073.28 597.059 2080.73C563.97 2069.22 547.043 2116.1 478.329 2069.47Z" fill="#C4C4C4" fill-opacity="0.2"/>
<path d="M677.945 1833.35C716.852 1725.06 797.471 1753.14 817.55 1828.09C814.964 1852.66 828.371 1838.28 805.145 1880.03C781.918 1921.79 704.569 2000.61 688.383 1953.02C693.647 1918.16 644.813 1909.85 677.945 1833.35Z" fill="#C4C4C4" fill-opacity="0.2"/>
</g>
</svg>
